<svg version="1.2" xmlns="http://www.w3.org/2000/svg" viewBox="0 0 110 135" width="110" height="135">
	<style>
		.s0 { fill: #000000 } 
	</style>
	<path class="s0" d="m60.08 99.82q-0.45 0.33-1.01 0.29h-8.01q-0.49 0.03-0.95-0.13c-0.84-0.4-0.88-1.02-0.87-1.99q0.01-8.2 0.01-17.98v0.01q0.01-1.21-0.19-2.41c-0.56-3.15-2.8-5.63-5.2-7.58-0.77-0.62-1.77-1.3-2.66-2.04-3.55-2.74-6.42-6.26-8.39-10.28q-1.25-2.78-1.65-5.8-0.2-2.03-0.16-4.07 0.01-5.55 0.02-6.48c0.17-7.1 3.84-13.65 9.8-17.51 2.98-1.96 6.39-3.2 9.93-3.61q3.1-0.38 6.22-0.19c6.35 0.22 12.33 3 16.6 7.71 3.37 3.78 5.25 8.66 5.29 13.72q0.01 1.87 0 7.92c0.01 2.8-0.56 5.57-1.68 8.14-1.27 2.86-3.06 5.45-5.28 7.66q-1.87 1.92-4.01 3.52-1.67 1.23-1.74 1.28c-1.49 1.13-2.77 2.49-3.81 4.03-0.77 1.13-1.3 2.41-1.54 3.76q-0.2 1.52-0.15 3.06 0.01 2.08 0.01 17.12c0 0.85 0.02 1.39-0.58 1.85zm-7.36-20.95q0.01 0.05 0.06 0.06h4.31q0.07-0.01 0.07-0.07c0.22-3.07 1.43-5.99 3.45-8.31q1.81-2.17 4.09-3.82c5.1-3.65 9.66-8.58 10.56-15q0.2-1.84 0.16-3.69-0.02-3.05 0-5.34 0.04-1.62-0.14-3.23c-0.45-3.74-2.12-7.22-4.75-9.9-3.06-3.16-7.1-5.21-11.46-5.82-3.14-0.48-6.33-0.42-9.44 0.2-5.57 1.06-10.37 4.55-13.09 9.52-1 1.84-1.66 3.85-1.95 5.92q-0.19 1.84-0.14 3.68 0 5.84 0.01 6.34c0 2.69 0.66 5.34 1.91 7.72q1.02 1.97 2.45 3.67 2.29 2.72 5.1 4.9 2.18 1.6 4.15 3.48c1.94 1.85 3.38 4.16 4.18 6.71q0.42 1.47 0.47 2.98zm4.46 3.58q-0.01-0.06-0.07-0.06h-4.34 0.01q-0.07 0-0.07 0.06v2.69q0 0.07 0.07 0.07h4.33q0.06 0 0.07-0.07zm0 4.83v0.01q0-0.07-0.07-0.08l-4.33-0.01q-0.07 0.01-0.07 0.08v1.67q0 0.07 0.07 0.08l4.33 0.01q0.07-0.01 0.07-0.07zm0 3.8q-0.01-0.06-0.07-0.06l-4.34 0.01q-0.06 0-0.06 0.07v1.67q0 0.06 0.06 0.06h4.34q0.06-0.01 0.07-0.07zm0 3.81v0.01q-0.01-0.06-0.06-0.07h-4.35q-0.06 0.01-0.07 0.07v1.7q0.01 0.05 0.07 0.06h4.34q0.06-0.01 0.07-0.06z"/>
	<path class="s0" d="m50.15 30.52c0 3.34-5.01 3.34-5.01 0 0-3.34 5.01-3.34 5.01 0z"/>
	<path class="s0" d="m64.56 29.73c1.03 3.15-3.75 4.72-4.79 1.57-1.03-3.15 3.75-4.73 4.79-1.57z"/>
	<path class="s0" d="m57.4 30.55c0 3.34-5.01 3.34-5.01 0 0-3.35 5.01-3.35 5.01 0z"/>
	<path class="s0" d="m71.93 38.11c0 3.33-5 3.33-5 0 0-3.34 5-3.34 5 0z"/>
	<path class="s0" d="m42.97 38.14c0 3.34-5.01 3.34-5.01 0 0-3.33 5.01-3.33 5.01 0z"/>
	<path class="s0" d="m64.68 38.14c0 3.35-5.03 3.35-5.03 0 0-3.35 5.03-3.35 5.03 0z"/>
	<path class="s0" d="m45.22 37.78c0.49-3.27 5.47-2.52 4.97 0.75-0.49 3.28-5.47 2.52-4.97-0.75z"/>
	<path class="s0" d="m57.43 38.17c0 3.34-5.01 3.34-5.01 0 0-3.35 5.01-3.35 5.01 0z"/>
	<path class="s0" d="m66.9 45.15c0.85-3.22 5.75-1.93 4.9 1.29-0.86 3.22-5.75 1.93-4.9-1.29z"/>
	<path class="s0" d="m64.6 45.82c0 3.36-5.03 3.36-5.03 0 0-3.36 5.03-3.36 5.03 0z"/>
	<path class="s0" d="m42.82 45.86c0 3.37-5.05 3.37-5.05 0 0-3.36 5.05-3.36 5.05 0z"/>
	<path class="s0" d="m45.03 45.63c0.29-3.33 5.33-2.9 5.04 0.43-0.28 3.33-5.32 2.89-5.04-0.43z"/>
	<path class="s0" d="m57.33 45.86c0 3.35-5.02 3.35-5.02 0 0-3.35 5.02-3.35 5.02 0z"/>
	<path class="s0" d="m71.92 53.53c0 3.35-5.03 3.35-5.03 0 0-3.35 5.03-3.35 5.03 0z"/>
	<path class="s0" d="m50.11 53.54c0 3.37-5.04 3.37-5.04 0 0-3.37 5.04-3.37 5.04 0z"/>
	<path class="s0" d="m64.67 53.56c0 3.37-5.05 3.37-5.05 0 0-3.37 5.05-3.37 5.05 0z"/>
	<path class="s0" d="m42.83 53.57c0 3.36-5.05 3.36-5.05 0 0-3.37 5.05-3.37 5.05 0z"/>
	<path class="s0" d="m57.4 53.58c0 3.37-5.06 3.37-5.06 0 0-3.38 5.06-3.38 5.06 0z"/>
	<path class="s0" d="m59.62 60.97c0.32-3.33 5.36-2.83 5.03 0.49-0.33 3.32-5.36 2.83-5.03-0.49z"/>
	<path class="s0" d="m45.15 60.89c0.48-3.31 5.51-2.58 5.02 0.73-0.48 3.3-5.51 2.57-5.02-0.73z"/>
	<path class="s0" d="m57.42 61.3c0 3.37-5.06 3.37-5.06 0 0-3.38 5.06-3.38 5.06 0z"/>
</svg>