<svg version="1.2" xmlns="http://www.w3.org/2000/svg" viewBox="0 0 90 90" width="90" height="90">
	<style>
		.s0 { fill: #000000 } 
	</style>
	<path class="s0" d="m78.61 11.39c0 0-11.75-12.55-25.95-9.73-14.19 2.82-21.52 15.01-24.54 25.89-2.43 8.5-0.48 17.53-0.93 21.97-0.42 4.14-1.73 7.14-2.88 9.06l7.11 7.11c1.92-1.15 4.92-2.46 9.06-2.88 4.44-0.45 13.47 1.5 21.97-0.93 10.88-3.02 23.07-10.35 25.89-24.54 2.82-14.2-9.73-25.95-9.73-25.95zm-38.52 7.95c0.73-0.73 1.92-0.73 2.65 0 0.73 0.73 0.73 1.92 0 2.65-0.73 0.73-1.92 0.73-2.65 0-0.73-0.73-0.73-1.92 0-2.65zm-1.09 12.27c0.73-0.73 1.91-0.73 2.64 0 0.73 0.73 0.73 1.91 0 2.64-0.73 0.73-1.91 0.73-2.64 0-0.74-0.73-0.74-1.91 0-2.64zm5.09 23.95q-2.15-0.08-4.04 0.1c-1.96 0.18-3.74 0.53-5.36 0.95-0.78 0.2-1.5-0.52-1.3-1.3 0.42-1.62 0.77-3.4 0.95-5.36q0.18-1.89 0.1-4.04c-0.03-0.99 1.15-1.5 1.84-0.82l8.63 8.63c0.68 0.69 0.17 1.87-0.82 1.84zm3.14-15.72c-0.73 0.73-1.92 0.73-2.65 0-0.73-0.73-0.73-1.92 0-2.65 0.73-0.73 1.92-0.73 2.65 0 0.73 0.73 0.73 1.92 0 2.65zm1.09-12.27c-0.73 0.73-1.92 0.73-2.65 0-0.73-0.73-0.73-1.91 0-2.64 0.73-0.73 1.92-0.73 2.65 0 0.73 0.73 0.73 1.91 0 2.64zm-1.56-12.25c-0.73-0.73-0.73-1.92 0-2.65 0.74-0.73 1.92-0.73 2.65 0 0.73 0.73 0.73 1.92 0 2.65-0.73 0.73-1.91 0.73-2.65 0zm6.05 30.1c-0.73 0.73-1.92 0.73-2.65 0-0.73-0.73-0.73-1.92 0-2.65 0.73-0.73 1.92-0.73 2.65 0 0.73 0.73 0.73 1.92 0 2.65zm1.1-12.26c-0.73 0.73-1.92 0.73-2.65 0-0.73-0.73-0.73-1.92 0-2.65 0.73-0.73 1.92-0.73 2.65 0 0.73 0.73 0.73 1.92 0 2.65zm-1.56-12.26c-0.73-0.73-0.73-1.92 0-2.65 0.73-0.73 1.92-0.73 2.65 0 0.73 0.73 0.73 1.92 0 2.65-0.73 0.73-1.92 0.73-2.65 0zm6.04 30.1c-0.73 0.73-1.91 0.73-2.64 0-0.74-0.73-0.74-1.92 0-2.65 0.73-0.73 1.91-0.73 2.64 0 0.73 0.73 0.73 1.92 0 2.65zm1.1-12.26c-0.73 0.73-1.92 0.73-2.65 0-0.73-0.73-0.73-1.92 0-2.65 0.73-0.73 1.92-0.73 2.65 0 0.73 0.73 0.73 1.92 0 2.65zm1.09-12.26c-0.73 0.73-1.92 0.73-2.65 0-0.73-0.73-0.73-1.92 0-2.65 0.73-0.73 1.92-0.73 2.65 0 0.73 0.73 0.73 1.92 0 2.65zm-1.55-12.26c-0.73-0.73-0.73-1.92 0-2.65 0.73-0.73 1.91-0.73 2.65 0 0.73 0.73 0.73 1.92 0 2.65-0.74 0.73-1.92 0.73-2.65 0zm6.04 30.11c-0.73 0.73-1.92 0.73-2.65 0-0.73-0.74-0.73-1.92 0-2.65 0.73-0.73 1.92-0.73 2.65 0 0.73 0.73 0.73 1.91 0 2.65zm1.09-12.27c-0.73 0.73-1.91 0.73-2.64 0-0.74-0.73-0.74-1.91 0-2.65 0.73-0.73 1.91-0.73 2.64 0 0.73 0.74 0.73 1.92 0 2.65zm-1.55-12.26c-0.73-0.73-0.73-1.92 0-2.65 0.73-0.73 1.92-0.73 2.65 0 0.73 0.73 0.73 1.92 0 2.65-0.73 0.73-1.92 0.73-2.65 0zm6.05 30.11c-0.73 0.73-1.92 0.73-2.65 0-0.73-0.73-0.73-1.92 0-2.65 0.73-0.73 1.92-0.73 2.65 0 0.73 0.73 0.73 1.92 0 2.65zm1.09-12.27c-0.73 0.73-1.92 0.73-2.65 0-0.73-0.73-0.73-1.91 0-2.64 0.73-0.73 1.92-0.73 2.65 0 0.73 0.73 0.73 1.91 0 2.64zm1.09-12.25c-0.73 0.73-1.91 0.73-2.65 0-0.73-0.73-0.73-1.92 0-2.65 0.74-0.73 1.92-0.73 2.65 0 0.73 0.73 0.73 1.92 0 2.65zm4.49 17.84c-0.73 0.73-1.92 0.73-2.65 0-0.73-0.73-0.73-1.92 0-2.65 0.73-0.73 1.92-0.73 2.65 0 0.73 0.73 0.73 1.92 0 2.65zm1.1-12.26c-0.74 0.73-1.92 0.73-2.65 0-0.73-0.73-0.73-1.92 0-2.65 0.73-0.73 1.92-0.73 2.65 0 0.73 0.73 0.73 1.92 0 2.65z"/>
	<path class="s0" d="m18.05 65.45l6.5 6.5 4.36-4.36-6.5-6.5z"/>
	<path class="s0" d="m9.73 73.78c-0.51 0.52-1.17 0.86-1.87 1.02l-2.33 0.48c-0.7 0.16-1.36 0.52-1.87 1.02l-1.86 1.87c-0.74 0.72-0.74 1.91 0 2.64l7.39 7.39c0.73 0.74 1.92 0.74 2.64 0l1.87-1.86c0.5-0.51 0.86-1.17 1.02-1.87l0.48-2.33c0.16-0.7 0.5-1.36 1.02-1.87l0.56-0.57-6.48-6.48z"/>
	<path class="s0" d="m15.86 67.67l-0.02-0.01-3.34 3.34 6.5 6.5 3.34-3.34z"/>
</svg>